<svg xmlns="http://www.w3.org/2000/svg" width="800" height="600">
  <path fill="#fefefe" d="M0 0h800v600H0z"/>
  <path fill="red" d="m477 318 3.07 1.492c26.887 13.874 49.006 37.442 58.43 66.445A171 171 0 0 1 540 392l.672 2.828c5.08 25.129-1.414 49.644-14.672 71.172-2.464 3.535-5.148 6.773-8 10l-2.234 2.668c-25.18 29.17-64.188 43.552-101.766 46.644-31.438 2.24-61.678-3.378-90-17.312l-3.07-1.492c-26.887-13.874-49.006-37.442-58.43-66.445A171 171 0 0 1 261 434l-.672-2.828c-5.08-25.129 1.414-49.644 14.672-71.172 2.464-3.535 5.148-6.773 8-10l2.234-2.668c25.18-29.17 64.188-43.552 101.766-46.644 31.438-2.24 61.678 3.378 90 17.312"/>
  <path fill="#00f" d="M701.98 249.398A176 176 0 0 1 709 256l2.75 2.625L714 261l2.813 2.813C727.58 276.538 731.046 291.726 730 308c-2.375 17.556-13.52 32.289-27.191 42.945-33.228 24.309-75.462 31.432-115.77 25.533C557.49 371.62 527.821 359.194 509 335c-10.13-14.604-13.464-30.25-10.34-47.684 4.988-17.986 17.748-32.52 33.34-42.316l1.732-1.092c15.855-9.844 32.95-15.654 51.268-18.908l3.805-.684c37.536-5.657 82.812.648 113.175 25.082"/>
  <path fill="#0f0" d="M280.367 253.625c12.296 11.092 21.9 25.03 23.012 41.965.682 18.105-4.926 32.714-17.129 46.16-5.236 5.548-10.773 10.181-17.25 14.25l-1.732 1.092C251.413 366.936 234.318 372.746 216 376l-3.805.684c-36.903 5.562-79.293-.68-110.195-22.684-3.519-2.832-6.795-5.82-10-9l-2.75-2.625L87 340l-2.812-2.812C73.419 324.462 69.954 309.274 71 293c2.375-17.556 13.52-32.289 27.191-42.945 51.412-37.612 132.796-38.073 182.176 3.57"/>
</svg>
